<mxfile host="app.diagrams.net" modified="2024-02-22T21:24:17.913Z" agent="Mozilla/5.0 (X11; Linux x86_64; rv:121.0) Gecko/20100101 Firefox/121.0" etag="Jyx3SBN26xsibQC05crA" version="23.1.6" type="device">
  <diagram id="j7nF-TVUxBw4xUQn4cIl" name="Page-1">
    <mxGraphModel dx="1356" dy="501" grid="1" gridSize="10" guides="1" tooltips="1" connect="1" arrows="1" fold="1" page="1" pageScale="1" pageWidth="827" pageHeight="1169" math="0" shadow="0">
      <root>
        <mxCell id="0" />
        <mxCell id="1" parent="0" />
        <mxCell id="nig3Wq-WDGFd4Grmrsc5-3" value="top_level.vhd" style="rounded=1;arcSize=3;whiteSpace=wrap;html=1;align=left;verticalAlign=top;fontFamily=Courier New;absoluteArcSize=0;fillColor=none;fontSize=10;spacingLeft=5;connectable=0;imageHeight=24;" parent="1" vertex="1">
          <mxGeometry x="120" y="40" width="320" height="230" as="geometry" />
        </mxCell>
        <mxCell id="nig3Wq-WDGFd4Grmrsc5-7" value="bin2seg.vhd" style="rounded=1;arcSize=10;align=left;verticalAlign=top;fontFamily=Courier New;absoluteArcSize=0;fillColor=none;points=[[0,0,0,0,0],[0,0.25,0,0,0],[0,0.5,0,0,0],[0,0.75,0,0,0],[0,1,0,0,0],[0.25,0,0,0,0],[0.25,1,0,0,0],[0.5,0,0,0,0],[0.5,1,0,0,0],[0.75,0,0,0,0],[0.75,1,0,0,0],[1,0,0,0,0],[1,0.25,0,0,0],[1,0.5,0,0,0],[1,0.75,0,0,0],[1,1,0,0,0]];connectable=0;snapToPoint=0;fixDash=0;metaEdit=0;autosize=0;fontSize=10;spacingLeft=5;labelBorderColor=none;spacingTop=0;spacing=2;labelBackgroundColor=none;whiteSpace=wrap;html=1;strokeWidth=1;shadow=0;glass=0;" parent="1" vertex="1">
          <mxGeometry x="200" y="90" width="120" height="80" as="geometry" />
        </mxCell>
        <mxCell id="nig3Wq-WDGFd4Grmrsc5-8" value="&lt;div style=&quot;line-height: 100%;&quot; align=&quot;left&quot;&gt;bin(3:0)&lt;/div&gt;" style="text;html=1;align=left;verticalAlign=middle;whiteSpace=wrap;rounded=0;fontFamily=Courier New;fontSize=10;fillOpacity=100;spacingLeft=5;" parent="1" vertex="1">
          <mxGeometry x="200" y="140" width="60" height="20" as="geometry" />
        </mxCell>
        <mxCell id="nig3Wq-WDGFd4Grmrsc5-9" value="clear" style="text;html=1;align=left;verticalAlign=middle;whiteSpace=wrap;rounded=0;fontFamily=Courier New;fontSize=10;fillOpacity=100;spacing=2;spacingLeft=5;" parent="1" vertex="1">
          <mxGeometry x="200" y="120" width="60" height="20" as="geometry" />
        </mxCell>
        <mxCell id="nig3Wq-WDGFd4Grmrsc5-10" value="&lt;div style=&quot;line-height: 100%;&quot;&gt;seg(6:0)&lt;/div&gt;" style="text;html=1;align=right;verticalAlign=middle;whiteSpace=wrap;rounded=0;fontFamily=Courier New;fontSize=10;fillOpacity=100;spacing=2;spacingRight=5;" parent="1" vertex="1">
          <mxGeometry x="260" y="120" width="60" height="20" as="geometry" />
        </mxCell>
        <mxCell id="nig3Wq-WDGFd4Grmrsc5-11" value="" style="endArrow=block;html=1;rounded=0;exitX=1;exitY=0.5;exitDx=0;exitDy=0;endFill=1;endSize=5;startSize=5;" parent="1" source="nig3Wq-WDGFd4Grmrsc5-10" edge="1">
          <mxGeometry width="50" height="50" relative="1" as="geometry">
            <mxPoint x="400" y="270" as="sourcePoint" />
            <mxPoint x="480" y="130" as="targetPoint" />
          </mxGeometry>
        </mxCell>
        <mxCell id="nig3Wq-WDGFd4Grmrsc5-14" value="" style="endArrow=block;html=1;rounded=0;exitX=1;exitY=0.5;exitDx=0;exitDy=0;endFill=1;endSize=5;startSize=5;" parent="1" edge="1">
          <mxGeometry width="50" height="50" relative="1" as="geometry">
            <mxPoint x="120" y="130" as="sourcePoint" />
            <mxPoint x="200" y="130" as="targetPoint" />
          </mxGeometry>
        </mxCell>
        <mxCell id="nig3Wq-WDGFd4Grmrsc5-15" value="" style="endArrow=block;html=1;rounded=0;exitX=1;exitY=0.5;exitDx=0;exitDy=0;endFill=1;endSize=5;startSize=5;" parent="1" edge="1">
          <mxGeometry width="50" height="50" relative="1" as="geometry">
            <mxPoint x="120" y="150" as="sourcePoint" />
            <mxPoint x="200" y="150" as="targetPoint" />
          </mxGeometry>
        </mxCell>
        <mxCell id="nig3Wq-WDGFd4Grmrsc5-17" value="" style="endArrow=block;html=1;rounded=0;endFill=1;endSize=5;startSize=5;" parent="1" edge="1">
          <mxGeometry width="50" height="50" relative="1" as="geometry">
            <mxPoint x="390" y="140" as="sourcePoint" />
            <mxPoint x="480" y="140" as="targetPoint" />
          </mxGeometry>
        </mxCell>
        <mxCell id="nig3Wq-WDGFd4Grmrsc5-18" value="" style="endArrow=block;html=1;rounded=0;endFill=1;orthogonal=1;endSize=5;startSize=5;" parent="1" edge="1">
          <mxGeometry width="50" height="50" relative="1" as="geometry">
            <mxPoint x="390" y="150" as="sourcePoint" />
            <mxPoint x="480" y="150" as="targetPoint" />
          </mxGeometry>
        </mxCell>
        <mxCell id="nig3Wq-WDGFd4Grmrsc5-19" value="" style="endArrow=block;html=1;rounded=0;endFill=1;orthogonal=1;endSize=5;startSize=5;" parent="1" edge="1">
          <mxGeometry width="50" height="50" relative="1" as="geometry">
            <mxPoint x="400" y="160" as="sourcePoint" />
            <mxPoint x="480" y="160" as="targetPoint" />
          </mxGeometry>
        </mxCell>
        <mxCell id="nig3Wq-WDGFd4Grmrsc5-20" value="" style="endArrow=block;html=1;rounded=0;endFill=1;endSize=5;startSize=5;" parent="1" edge="1">
          <mxGeometry width="50" height="50" relative="1" as="geometry">
            <mxPoint x="390" y="120" as="sourcePoint" />
            <mxPoint x="480" y="120" as="targetPoint" />
          </mxGeometry>
        </mxCell>
        <mxCell id="nig3Wq-WDGFd4Grmrsc5-21" value="" style="endArrow=block;html=1;rounded=0;endFill=1;endSize=5;startSize=5;" parent="1" edge="1">
          <mxGeometry width="50" height="50" relative="1" as="geometry">
            <mxPoint x="390" y="110" as="sourcePoint" />
            <mxPoint x="480" y="110" as="targetPoint" />
          </mxGeometry>
        </mxCell>
        <mxCell id="nig3Wq-WDGFd4Grmrsc5-22" value="" style="endArrow=block;html=1;rounded=0;endFill=1;endSize=5;startSize=5;" parent="1" edge="1">
          <mxGeometry width="50" height="50" relative="1" as="geometry">
            <mxPoint x="400" y="100" as="sourcePoint" />
            <mxPoint x="480" y="100" as="targetPoint" />
          </mxGeometry>
        </mxCell>
        <mxCell id="nig3Wq-WDGFd4Grmrsc5-23" value="" style="endArrow=none;html=1;rounded=1;curved=0;anchorPointDirection=1;movable=1;resizable=1;rotatable=1;deletable=1;editable=1;locked=0;connectable=1;startFill=1;endFill=1;snapToPoint=0;fixDash=0;ignoreEdge=0;orthogonal=1;jumpStyle=none;shadow=0;" parent="1" edge="1">
          <mxGeometry width="50" height="50" relative="1" as="geometry">
            <mxPoint x="390" y="110" as="sourcePoint" />
            <mxPoint x="400" y="100" as="targetPoint" />
            <Array as="points">
              <mxPoint x="390" y="100" />
            </Array>
          </mxGeometry>
        </mxCell>
        <mxCell id="nig3Wq-WDGFd4Grmrsc5-25" value="" style="endArrow=none;html=1;rounded=0;" parent="1" edge="1">
          <mxGeometry width="50" height="50" relative="1" as="geometry">
            <mxPoint x="390" y="150" as="sourcePoint" />
            <mxPoint x="390" y="110" as="targetPoint" />
          </mxGeometry>
        </mxCell>
        <mxCell id="nig3Wq-WDGFd4Grmrsc5-26" value="" style="endArrow=none;html=1;rounded=1;curved=0;" parent="1" edge="1">
          <mxGeometry width="50" height="50" relative="1" as="geometry">
            <mxPoint x="390" y="150" as="sourcePoint" />
            <mxPoint x="400" y="160" as="targetPoint" />
            <Array as="points">
              <mxPoint x="390" y="160" />
            </Array>
          </mxGeometry>
        </mxCell>
        <mxCell id="nig3Wq-WDGFd4Grmrsc5-27" value="" style="endArrow=block;html=1;rounded=0;endFill=1;endSize=5;startSize=5;" parent="1" edge="1">
          <mxGeometry width="50" height="50" relative="1" as="geometry">
            <mxPoint x="90" y="150" as="sourcePoint" />
            <mxPoint x="120" y="150" as="targetPoint" />
          </mxGeometry>
        </mxCell>
        <mxCell id="nig3Wq-WDGFd4Grmrsc5-31" value="" style="endArrow=block;html=1;rounded=0;endFill=1;endSize=5;startSize=5;" parent="1" edge="1">
          <mxGeometry width="50" height="50" relative="1" as="geometry">
            <mxPoint x="80" y="130" as="sourcePoint" />
            <mxPoint x="120" y="130" as="targetPoint" />
          </mxGeometry>
        </mxCell>
        <mxCell id="nig3Wq-WDGFd4Grmrsc5-33" value="BTNC" style="text;html=1;align=left;verticalAlign=middle;whiteSpace=wrap;rounded=0;fontFamily=Courier New;fontSize=10;fillOpacity=100;spacing=2;spacingLeft=0;connectable=0;" parent="1" vertex="1">
          <mxGeometry x="40" y="120" width="40" height="20" as="geometry" />
        </mxCell>
        <mxCell id="nig3Wq-WDGFd4Grmrsc5-34" value="SW(3:0)" style="text;html=1;align=left;verticalAlign=middle;whiteSpace=wrap;rounded=0;fontFamily=Courier New;fontSize=10;fillOpacity=100;spacing=2;spacingLeft=0;connectable=0;" parent="1" vertex="1">
          <mxGeometry x="40" y="140" width="40" height="20" as="geometry" />
        </mxCell>
        <mxCell id="nig3Wq-WDGFd4Grmrsc5-35" value="CA" style="text;html=1;align=left;verticalAlign=middle;whiteSpace=wrap;rounded=0;fontFamily=Courier New;fontSize=10;fillOpacity=100;spacing=2;spacingLeft=5;connectable=0;" parent="1" vertex="1">
          <mxGeometry x="480" y="90" width="30" height="20" as="geometry" />
        </mxCell>
        <mxCell id="nig3Wq-WDGFd4Grmrsc5-36" value="CB" style="text;html=1;align=left;verticalAlign=middle;whiteSpace=wrap;rounded=0;fontFamily=Courier New;fontSize=10;fillOpacity=100;spacing=2;spacingLeft=5;connectable=0;" parent="1" vertex="1">
          <mxGeometry x="480" y="100" width="30" height="20" as="geometry" />
        </mxCell>
        <mxCell id="nig3Wq-WDGFd4Grmrsc5-37" value="CC" style="text;html=1;align=left;verticalAlign=middle;whiteSpace=wrap;rounded=0;fontFamily=Courier New;fontSize=10;fillOpacity=100;spacing=2;spacingLeft=5;connectable=0;" parent="1" vertex="1">
          <mxGeometry x="480" y="110" width="30" height="20" as="geometry" />
        </mxCell>
        <mxCell id="nig3Wq-WDGFd4Grmrsc5-38" value="CD" style="text;html=1;align=left;verticalAlign=middle;whiteSpace=wrap;rounded=0;fontFamily=Courier New;fontSize=10;fillOpacity=100;spacing=2;spacingLeft=5;connectable=0;" parent="1" vertex="1">
          <mxGeometry x="480" y="120" width="30" height="20" as="geometry" />
        </mxCell>
        <mxCell id="nig3Wq-WDGFd4Grmrsc5-39" value="CE" style="text;html=1;align=left;verticalAlign=middle;whiteSpace=wrap;rounded=0;fontFamily=Courier New;fontSize=10;fillOpacity=100;spacing=2;spacingLeft=5;connectable=0;" parent="1" vertex="1">
          <mxGeometry x="480" y="130" width="30" height="20" as="geometry" />
        </mxCell>
        <mxCell id="nig3Wq-WDGFd4Grmrsc5-40" value="CF" style="text;html=1;align=left;verticalAlign=middle;whiteSpace=wrap;rounded=0;fontFamily=Courier New;fontSize=10;fillOpacity=100;spacing=2;spacingLeft=5;connectable=0;" parent="1" vertex="1">
          <mxGeometry x="480" y="140" width="30" height="20" as="geometry" />
        </mxCell>
        <mxCell id="nig3Wq-WDGFd4Grmrsc5-41" value="CG" style="text;html=1;align=left;verticalAlign=middle;whiteSpace=wrap;rounded=0;fontFamily=Courier New;fontSize=10;fillOpacity=100;spacing=2;spacingLeft=5;connectable=0;" parent="1" vertex="1">
          <mxGeometry x="480" y="150" width="30" height="20" as="geometry" />
        </mxCell>
        <mxCell id="nig3Wq-WDGFd4Grmrsc5-45" value="" style="endArrow=block;html=1;rounded=0;endFill=1;orthogonal=1;endSize=5;startSize=5;" parent="1" edge="1">
          <mxGeometry width="50" height="50" relative="1" as="geometry">
            <mxPoint x="170" y="200" as="sourcePoint" />
            <mxPoint x="480" y="200" as="targetPoint" />
          </mxGeometry>
        </mxCell>
        <mxCell id="nig3Wq-WDGFd4Grmrsc5-46" value="" style="endArrow=none;html=1;rounded=0;startArrow=oval;startFill=1;endSize=4;startSize=4;" parent="1" edge="1">
          <mxGeometry width="50" height="50" relative="1" as="geometry">
            <mxPoint x="170" y="150" as="sourcePoint" />
            <mxPoint x="170" y="200" as="targetPoint" />
          </mxGeometry>
        </mxCell>
        <mxCell id="nig3Wq-WDGFd4Grmrsc5-47" value="LED(3:0)" style="text;html=1;align=left;verticalAlign=middle;whiteSpace=wrap;rounded=0;fontFamily=Courier New;fontSize=10;fillOpacity=100;spacing=2;spacingLeft=5;connectable=0;" parent="1" vertex="1">
          <mxGeometry x="480" y="190" width="30" height="20" as="geometry" />
        </mxCell>
        <mxCell id="nig3Wq-WDGFd4Grmrsc5-48" value="" style="endArrow=block;html=1;rounded=0;endFill=1;orthogonal=1;endSize=5;startSize=5;" parent="1" edge="1">
          <mxGeometry width="50" height="50" relative="1" as="geometry">
            <mxPoint x="400" y="240" as="sourcePoint" />
            <mxPoint x="480" y="240" as="targetPoint" />
          </mxGeometry>
        </mxCell>
        <mxCell id="nig3Wq-WDGFd4Grmrsc5-49" value="b&quot;1111_1110&quot;" style="text;html=1;align=left;verticalAlign=middle;whiteSpace=wrap;rounded=0;fontFamily=Courier New;fontSize=10;fillOpacity=100;spacing=2;spacingLeft=0;connectable=0;" parent="1" vertex="1">
          <mxGeometry x="320" y="230" width="80" height="20" as="geometry" />
        </mxCell>
        <mxCell id="nig3Wq-WDGFd4Grmrsc5-50" value="AN(7:0)" style="text;html=1;align=left;verticalAlign=middle;whiteSpace=wrap;rounded=0;fontFamily=Courier New;fontSize=10;fillOpacity=100;spacing=2;spacingLeft=5;connectable=0;" parent="1" vertex="1">
          <mxGeometry x="480" y="230" width="30" height="20" as="geometry" />
        </mxCell>
        <mxCell id="nig3Wq-WDGFd4Grmrsc5-51" value="top_level.vhd" style="rounded=1;arcSize=3;whiteSpace=wrap;html=1;align=left;verticalAlign=top;fontFamily=Courier New;absoluteArcSize=0;fillColor=none;fontSize=10;spacingLeft=5;connectable=0;imageHeight=24;" parent="1" vertex="1">
          <mxGeometry x="40" y="360" width="399.36" height="290" as="geometry" />
        </mxCell>
        <mxCell id="nig3Wq-WDGFd4Grmrsc5-53" value="bin2seg.vhd" style="rounded=1;arcSize=10;align=left;verticalAlign=top;fontFamily=Courier New;absoluteArcSize=0;fillColor=none;points=[[0,0,0,0,0],[0,0.25,0,0,0],[0,0.5,0,0,0],[0,0.75,0,0,0],[0,1,0,0,0],[0.25,0,0,0,0],[0.25,1,0,0,0],[0.5,0,0,0,0],[0.5,1,0,0,0],[0.75,0,0,0,0],[0.75,1,0,0,0],[1,0,0,0,0],[1,0.25,0,0,0],[1,0.5,0,0,0],[1,0.75,0,0,0],[1,1,0,0,0]];connectable=0;snapToPoint=0;fixDash=0;metaEdit=0;autosize=0;fontSize=10;spacingLeft=5;labelBorderColor=none;spacingTop=0;spacing=2;labelBackgroundColor=none;whiteSpace=wrap;html=1;strokeWidth=1;shadow=0;glass=0;" parent="1" vertex="1">
          <mxGeometry x="199.36" y="410" width="120" height="80" as="geometry" />
        </mxCell>
        <mxCell id="nig3Wq-WDGFd4Grmrsc5-54" value="&lt;div style=&quot;line-height: 100%;&quot; align=&quot;left&quot;&gt;bin(3:0)&lt;/div&gt;" style="text;html=1;align=left;verticalAlign=middle;whiteSpace=wrap;rounded=0;fontFamily=Courier New;fontSize=10;fillOpacity=100;spacingLeft=5;" parent="1" vertex="1">
          <mxGeometry x="199.36" y="460" width="60" height="20" as="geometry" />
        </mxCell>
        <mxCell id="nig3Wq-WDGFd4Grmrsc5-55" value="clear" style="text;html=1;align=left;verticalAlign=middle;whiteSpace=wrap;rounded=0;fontFamily=Courier New;fontSize=10;fillOpacity=100;spacing=2;spacingLeft=5;" parent="1" vertex="1">
          <mxGeometry x="199.36" y="440" width="60" height="20" as="geometry" />
        </mxCell>
        <mxCell id="nig3Wq-WDGFd4Grmrsc5-56" value="&lt;div style=&quot;line-height: 100%;&quot;&gt;seg(6:0)&lt;/div&gt;" style="text;html=1;align=right;verticalAlign=middle;whiteSpace=wrap;rounded=0;fontFamily=Courier New;fontSize=10;fillOpacity=100;spacing=2;spacingRight=5;" parent="1" vertex="1">
          <mxGeometry x="259.36" y="440" width="60" height="20" as="geometry" />
        </mxCell>
        <mxCell id="nig3Wq-WDGFd4Grmrsc5-57" value="" style="endArrow=block;html=1;rounded=0;exitX=1;exitY=0.5;exitDx=0;exitDy=0;endFill=1;endSize=5;startSize=5;" parent="1" source="nig3Wq-WDGFd4Grmrsc5-56" edge="1">
          <mxGeometry width="50" height="50" relative="1" as="geometry">
            <mxPoint x="399.36" y="590" as="sourcePoint" />
            <mxPoint x="480" y="450" as="targetPoint" />
          </mxGeometry>
        </mxCell>
        <mxCell id="nig3Wq-WDGFd4Grmrsc5-58" value="" style="endArrow=block;html=1;rounded=0;endFill=1;endSize=5;startSize=5;" parent="1" edge="1">
          <mxGeometry width="50" height="50" relative="1" as="geometry">
            <mxPoint x="40" y="450" as="sourcePoint" />
            <mxPoint x="199.36" y="450" as="targetPoint" />
          </mxGeometry>
        </mxCell>
        <mxCell id="nig3Wq-WDGFd4Grmrsc5-59" value="" style="endArrow=block;html=1;rounded=0;endFill=1;endSize=5;startSize=5;" parent="1" edge="1">
          <mxGeometry width="50" height="50" relative="1" as="geometry">
            <mxPoint x="150" y="470" as="sourcePoint" />
            <mxPoint x="199.36" y="470" as="targetPoint" />
          </mxGeometry>
        </mxCell>
        <mxCell id="nig3Wq-WDGFd4Grmrsc5-60" value="" style="endArrow=block;html=1;rounded=0;endFill=1;endSize=5;startSize=5;" parent="1" edge="1">
          <mxGeometry width="50" height="50" relative="1" as="geometry">
            <mxPoint x="390" y="460" as="sourcePoint" />
            <mxPoint x="480" y="460" as="targetPoint" />
          </mxGeometry>
        </mxCell>
        <mxCell id="nig3Wq-WDGFd4Grmrsc5-61" value="" style="endArrow=block;html=1;rounded=0;endFill=1;orthogonal=1;endSize=5;startSize=5;" parent="1" edge="1">
          <mxGeometry width="50" height="50" relative="1" as="geometry">
            <mxPoint x="390" y="470" as="sourcePoint" />
            <mxPoint x="480" y="470" as="targetPoint" />
          </mxGeometry>
        </mxCell>
        <mxCell id="nig3Wq-WDGFd4Grmrsc5-62" value="" style="endArrow=block;html=1;rounded=0;endFill=1;orthogonal=1;endSize=5;startSize=5;" parent="1" edge="1">
          <mxGeometry width="50" height="50" relative="1" as="geometry">
            <mxPoint x="400" y="480" as="sourcePoint" />
            <mxPoint x="480" y="480" as="targetPoint" />
          </mxGeometry>
        </mxCell>
        <mxCell id="nig3Wq-WDGFd4Grmrsc5-63" value="" style="endArrow=block;html=1;rounded=0;endFill=1;endSize=5;startSize=5;" parent="1" edge="1">
          <mxGeometry width="50" height="50" relative="1" as="geometry">
            <mxPoint x="390" y="440" as="sourcePoint" />
            <mxPoint x="480" y="440" as="targetPoint" />
          </mxGeometry>
        </mxCell>
        <mxCell id="nig3Wq-WDGFd4Grmrsc5-64" value="" style="endArrow=block;html=1;rounded=0;endFill=1;endSize=5;startSize=5;" parent="1" edge="1">
          <mxGeometry width="50" height="50" relative="1" as="geometry">
            <mxPoint x="390" y="430" as="sourcePoint" />
            <mxPoint x="480" y="430" as="targetPoint" />
          </mxGeometry>
        </mxCell>
        <mxCell id="nig3Wq-WDGFd4Grmrsc5-65" value="" style="endArrow=block;html=1;rounded=0;endFill=1;endSize=5;startSize=5;" parent="1" edge="1">
          <mxGeometry width="50" height="50" relative="1" as="geometry">
            <mxPoint x="400" y="420" as="sourcePoint" />
            <mxPoint x="480" y="420" as="targetPoint" />
          </mxGeometry>
        </mxCell>
        <mxCell id="nig3Wq-WDGFd4Grmrsc5-66" value="" style="endArrow=none;html=1;rounded=1;curved=0;anchorPointDirection=1;movable=1;resizable=1;rotatable=1;deletable=1;editable=1;locked=0;connectable=1;startFill=1;endFill=1;snapToPoint=0;fixDash=0;ignoreEdge=0;orthogonal=1;jumpStyle=none;shadow=0;" parent="1" edge="1">
          <mxGeometry width="50" height="50" relative="1" as="geometry">
            <mxPoint x="389.36" y="430" as="sourcePoint" />
            <mxPoint x="399.36" y="420" as="targetPoint" />
            <Array as="points">
              <mxPoint x="389.36" y="420" />
            </Array>
          </mxGeometry>
        </mxCell>
        <mxCell id="nig3Wq-WDGFd4Grmrsc5-67" value="" style="endArrow=none;html=1;rounded=0;" parent="1" edge="1">
          <mxGeometry width="50" height="50" relative="1" as="geometry">
            <mxPoint x="389.36" y="470" as="sourcePoint" />
            <mxPoint x="389.36" y="430" as="targetPoint" />
          </mxGeometry>
        </mxCell>
        <mxCell id="nig3Wq-WDGFd4Grmrsc5-68" value="" style="endArrow=none;html=1;rounded=1;curved=0;" parent="1" edge="1">
          <mxGeometry width="50" height="50" relative="1" as="geometry">
            <mxPoint x="389.36" y="470" as="sourcePoint" />
            <mxPoint x="399.36" y="480" as="targetPoint" />
            <Array as="points">
              <mxPoint x="389.36" y="480" />
            </Array>
          </mxGeometry>
        </mxCell>
        <mxCell id="nig3Wq-WDGFd4Grmrsc5-69" value="" style="endArrow=block;html=1;rounded=0;endFill=1;endSize=5;startSize=5;" parent="1" edge="1">
          <mxGeometry width="50" height="50" relative="1" as="geometry">
            <mxPoint x="10" y="470" as="sourcePoint" />
            <mxPoint x="40" y="470" as="targetPoint" />
          </mxGeometry>
        </mxCell>
        <mxCell id="nig3Wq-WDGFd4Grmrsc5-70" value="" style="endArrow=block;html=1;rounded=0;endFill=1;endSize=5;startSize=5;" parent="1" edge="1">
          <mxGeometry width="50" height="50" relative="1" as="geometry">
            <mxPoint x="-20" y="450" as="sourcePoint" />
            <mxPoint x="40" y="450" as="targetPoint" />
          </mxGeometry>
        </mxCell>
        <mxCell id="nig3Wq-WDGFd4Grmrsc5-71" value="BTNC" style="text;html=1;align=left;verticalAlign=middle;whiteSpace=wrap;rounded=0;fontFamily=Courier New;fontSize=10;fillOpacity=100;spacing=2;spacingLeft=0;connectable=0;" parent="1" vertex="1">
          <mxGeometry x="-55" y="440" width="40" height="20" as="geometry" />
        </mxCell>
        <mxCell id="nig3Wq-WDGFd4Grmrsc5-72" value="SW_R(3:0)" style="text;html=1;align=left;verticalAlign=middle;whiteSpace=wrap;rounded=0;fontFamily=Courier New;fontSize=10;fillOpacity=100;spacing=2;spacingLeft=0;connectable=0;" parent="1" vertex="1">
          <mxGeometry x="-55" y="460" width="40" height="20" as="geometry" />
        </mxCell>
        <mxCell id="nig3Wq-WDGFd4Grmrsc5-73" value="CA" style="text;html=1;align=left;verticalAlign=middle;whiteSpace=wrap;rounded=0;fontFamily=Courier New;fontSize=10;fillOpacity=100;spacing=2;spacingLeft=5;connectable=0;" parent="1" vertex="1">
          <mxGeometry x="479.36" y="410" width="30" height="20" as="geometry" />
        </mxCell>
        <mxCell id="nig3Wq-WDGFd4Grmrsc5-74" value="CB" style="text;html=1;align=left;verticalAlign=middle;whiteSpace=wrap;rounded=0;fontFamily=Courier New;fontSize=10;fillOpacity=100;spacing=2;spacingLeft=5;connectable=0;" parent="1" vertex="1">
          <mxGeometry x="479.36" y="420" width="30" height="20" as="geometry" />
        </mxCell>
        <mxCell id="nig3Wq-WDGFd4Grmrsc5-75" value="CC" style="text;html=1;align=left;verticalAlign=middle;whiteSpace=wrap;rounded=0;fontFamily=Courier New;fontSize=10;fillOpacity=100;spacing=2;spacingLeft=5;connectable=0;" parent="1" vertex="1">
          <mxGeometry x="479.36" y="430" width="30" height="20" as="geometry" />
        </mxCell>
        <mxCell id="nig3Wq-WDGFd4Grmrsc5-76" value="CD" style="text;html=1;align=left;verticalAlign=middle;whiteSpace=wrap;rounded=0;fontFamily=Courier New;fontSize=10;fillOpacity=100;spacing=2;spacingLeft=5;connectable=0;" parent="1" vertex="1">
          <mxGeometry x="479.36" y="440" width="30" height="20" as="geometry" />
        </mxCell>
        <mxCell id="nig3Wq-WDGFd4Grmrsc5-77" value="CE" style="text;html=1;align=left;verticalAlign=middle;whiteSpace=wrap;rounded=0;fontFamily=Courier New;fontSize=10;fillOpacity=100;spacing=2;spacingLeft=5;connectable=0;" parent="1" vertex="1">
          <mxGeometry x="479.36" y="450" width="30" height="20" as="geometry" />
        </mxCell>
        <mxCell id="nig3Wq-WDGFd4Grmrsc5-78" value="CF" style="text;html=1;align=left;verticalAlign=middle;whiteSpace=wrap;rounded=0;fontFamily=Courier New;fontSize=10;fillOpacity=100;spacing=2;spacingLeft=5;connectable=0;" parent="1" vertex="1">
          <mxGeometry x="479.36" y="460" width="30" height="20" as="geometry" />
        </mxCell>
        <mxCell id="nig3Wq-WDGFd4Grmrsc5-79" value="CG" style="text;html=1;align=left;verticalAlign=middle;whiteSpace=wrap;rounded=0;fontFamily=Courier New;fontSize=10;fillOpacity=100;spacing=2;spacingLeft=5;connectable=0;" parent="1" vertex="1">
          <mxGeometry x="479.36" y="470" width="30" height="20" as="geometry" />
        </mxCell>
        <mxCell id="nig3Wq-WDGFd4Grmrsc5-80" value="sig_tmp(3:0)" style="text;html=1;align=center;verticalAlign=middle;whiteSpace=wrap;rounded=0;fontFamily=Courier New;fontSize=10;fillOpacity=100;spacing=2;spacingLeft=0;connectable=0;" parent="1" vertex="1">
          <mxGeometry x="139.36" y="450" width="50.64" height="20" as="geometry" />
        </mxCell>
        <mxCell id="nig3Wq-WDGFd4Grmrsc5-81" value="" style="endArrow=block;html=1;rounded=0;endFill=1;orthogonal=1;endSize=5;startSize=5;" parent="1" edge="1">
          <mxGeometry width="50" height="50" relative="1" as="geometry">
            <mxPoint x="90" y="540" as="sourcePoint" />
            <mxPoint x="480" y="540" as="targetPoint" />
          </mxGeometry>
        </mxCell>
        <mxCell id="nig3Wq-WDGFd4Grmrsc5-82" value="" style="endArrow=none;html=1;rounded=0;startArrow=oval;startFill=1;endSize=4;startSize=4;" parent="1" edge="1">
          <mxGeometry width="50" height="50" relative="1" as="geometry">
            <mxPoint x="90" y="470" as="sourcePoint" />
            <mxPoint x="90" y="540" as="targetPoint" />
          </mxGeometry>
        </mxCell>
        <mxCell id="nig3Wq-WDGFd4Grmrsc5-83" value="LED_R(3:0)" style="text;html=1;align=left;verticalAlign=middle;whiteSpace=wrap;rounded=0;fontFamily=Courier New;fontSize=10;fillOpacity=100;spacing=2;spacingLeft=5;connectable=0;" parent="1" vertex="1">
          <mxGeometry x="480" y="530" width="70" height="20" as="geometry" />
        </mxCell>
        <mxCell id="nig3Wq-WDGFd4Grmrsc5-84" value="" style="endArrow=block;html=1;rounded=0;endFill=1;orthogonal=1;endSize=5;startSize=5;" parent="1" edge="1">
          <mxGeometry width="50" height="50" relative="1" as="geometry">
            <mxPoint x="389" y="580" as="sourcePoint" />
            <mxPoint x="479" y="580" as="targetPoint" />
          </mxGeometry>
        </mxCell>
        <mxCell id="nig3Wq-WDGFd4Grmrsc5-85" value="b&quot;11_1111&quot;" style="text;html=1;align=left;verticalAlign=middle;whiteSpace=wrap;rounded=0;fontFamily=Courier New;fontSize=10;fillOpacity=100;spacing=2;spacingLeft=0;connectable=0;" parent="1" vertex="1">
          <mxGeometry x="320" y="570" width="80" height="20" as="geometry" />
        </mxCell>
        <mxCell id="nig3Wq-WDGFd4Grmrsc5-86" value="AN(7:2)" style="text;html=1;align=left;verticalAlign=middle;whiteSpace=wrap;rounded=0;fontFamily=Courier New;fontSize=10;fillOpacity=100;spacing=2;spacingLeft=5;connectable=0;" parent="1" vertex="1">
          <mxGeometry x="479" y="570" width="60.64" height="20" as="geometry" />
        </mxCell>
        <mxCell id="nig3Wq-WDGFd4Grmrsc5-87" value="" style="endArrow=block;html=1;rounded=0;endFill=1;orthogonal=1;endSize=5;startSize=5;" parent="1" edge="1">
          <mxGeometry width="50" height="50" relative="1" as="geometry">
            <mxPoint x="370" y="180" as="sourcePoint" />
            <mxPoint x="480" y="180" as="targetPoint" />
          </mxGeometry>
        </mxCell>
        <mxCell id="nig3Wq-WDGFd4Grmrsc5-88" value="DP" style="text;html=1;align=left;verticalAlign=middle;whiteSpace=wrap;rounded=0;fontFamily=Courier New;fontSize=10;fillOpacity=100;spacing=2;spacingLeft=5;connectable=0;" parent="1" vertex="1">
          <mxGeometry x="480" y="170" width="30" height="20" as="geometry" />
        </mxCell>
        <mxCell id="nig3Wq-WDGFd4Grmrsc5-89" value="&#39;1&#39;" style="text;html=1;align=left;verticalAlign=middle;whiteSpace=wrap;rounded=0;fontFamily=Courier New;fontSize=10;fillOpacity=100;spacing=2;spacingLeft=0;connectable=0;" parent="1" vertex="1">
          <mxGeometry x="345" y="170" width="30" height="20" as="geometry" />
        </mxCell>
        <mxCell id="nig3Wq-WDGFd4Grmrsc5-90" value="" style="verticalLabelPosition=bottom;shadow=0;dashed=0;align=center;html=1;verticalAlign=top;shape=mxgraph.electrical.opto_electronics.7_segment_display_with_dp;pointerEvents=1;fillColor=#FF0000;strokeColor=none;aspect=fixed;" parent="1" vertex="1">
          <mxGeometry x="560" y="90" width="65.82" height="80" as="geometry" />
        </mxCell>
        <mxCell id="nig3Wq-WDGFd4Grmrsc5-92" value="" style="endArrow=block;html=1;rounded=0;endFill=1;orthogonal=1;endSize=5;startSize=5;" parent="1" edge="1">
          <mxGeometry width="50" height="50" relative="1" as="geometry">
            <mxPoint x="370" y="500" as="sourcePoint" />
            <mxPoint x="480" y="500" as="targetPoint" />
          </mxGeometry>
        </mxCell>
        <mxCell id="nig3Wq-WDGFd4Grmrsc5-93" value="DP" style="text;html=1;align=left;verticalAlign=middle;whiteSpace=wrap;rounded=0;fontFamily=Courier New;fontSize=10;fillOpacity=100;spacing=2;spacingLeft=5;connectable=0;" parent="1" vertex="1">
          <mxGeometry x="479" y="490" width="30" height="20" as="geometry" />
        </mxCell>
        <mxCell id="nig3Wq-WDGFd4Grmrsc5-94" value="&#39;1&#39;" style="text;html=1;align=left;verticalAlign=middle;whiteSpace=wrap;rounded=0;fontFamily=Courier New;fontSize=10;fillOpacity=100;spacing=2;spacingLeft=0;connectable=0;" parent="1" vertex="1">
          <mxGeometry x="345" y="490" width="30" height="20" as="geometry" />
        </mxCell>
        <mxCell id="nig3Wq-WDGFd4Grmrsc5-96" value="" style="verticalLabelPosition=bottom;shadow=0;dashed=0;align=center;html=1;verticalAlign=top;shape=mxgraph.electrical.opto_electronics.7_segment_display_with_dp;pointerEvents=1;fillColor=#FF0000;strokeColor=none;aspect=fixed;" parent="1" vertex="1">
          <mxGeometry x="560" y="410" width="65.82" height="80" as="geometry" />
        </mxCell>
        <mxCell id="nig3Wq-WDGFd4Grmrsc5-99" value="Mux" style="shadow=0;dashed=0;align=center;html=1;strokeWidth=1;shape=mxgraph.electrical.abstract.mux2;whiteSpace=wrap;aspect=fixed;fontSize=10;fontFamily=Courier New;fontColor=none;noLabel=1;connectable=0;" parent="1" vertex="1">
          <mxGeometry x="100" y="457" width="37.32" height="56" as="geometry" />
        </mxCell>
        <mxCell id="nig3Wq-WDGFd4Grmrsc5-101" value="" style="endArrow=block;html=1;rounded=0;endFill=1;endSize=5;startSize=5;" parent="1" edge="1">
          <mxGeometry width="50" height="50" relative="1" as="geometry">
            <mxPoint x="10" y="490" as="sourcePoint" />
            <mxPoint x="40" y="490" as="targetPoint" />
          </mxGeometry>
        </mxCell>
        <mxCell id="nig3Wq-WDGFd4Grmrsc5-102" value="SW_L(3:0)" style="text;html=1;align=left;verticalAlign=middle;whiteSpace=wrap;rounded=0;fontFamily=Courier New;fontSize=10;fillOpacity=100;spacing=2;spacingLeft=0;connectable=0;" parent="1" vertex="1">
          <mxGeometry x="-55" y="480" width="40" height="20" as="geometry" />
        </mxCell>
        <mxCell id="nig3Wq-WDGFd4Grmrsc5-103" value="" style="endArrow=none;html=1;rounded=0;endFill=0;endSize=5;startSize=5;" parent="1" edge="1">
          <mxGeometry width="50" height="50" relative="1" as="geometry">
            <mxPoint x="40" y="470" as="sourcePoint" />
            <mxPoint x="100" y="470" as="targetPoint" />
          </mxGeometry>
        </mxCell>
        <mxCell id="nig3Wq-WDGFd4Grmrsc5-104" value="" style="endArrow=none;html=1;rounded=0;endFill=0;endSize=5;startSize=5;" parent="1" edge="1">
          <mxGeometry width="50" height="50" relative="1" as="geometry">
            <mxPoint x="40" y="490" as="sourcePoint" />
            <mxPoint x="100" y="490" as="targetPoint" />
          </mxGeometry>
        </mxCell>
        <mxCell id="nig3Wq-WDGFd4Grmrsc5-105" value="" style="endArrow=none;html=1;rounded=0;startArrow=none;startFill=0;endSize=5;startSize=5;" parent="1" edge="1">
          <mxGeometry width="50" height="50" relative="1" as="geometry">
            <mxPoint x="150" y="470" as="sourcePoint" />
            <mxPoint x="150" y="480" as="targetPoint" />
          </mxGeometry>
        </mxCell>
        <mxCell id="nig3Wq-WDGFd4Grmrsc5-106" value="" style="endArrow=none;html=1;rounded=0;endFill=0;endSize=5;startSize=5;" parent="1" edge="1">
          <mxGeometry width="50" height="50" relative="1" as="geometry">
            <mxPoint x="137" y="480" as="sourcePoint" />
            <mxPoint x="150" y="480" as="targetPoint" />
          </mxGeometry>
        </mxCell>
        <mxCell id="nig3Wq-WDGFd4Grmrsc5-107" value="" style="endArrow=block;html=1;rounded=0;endFill=1;endSize=5;startSize=5;" parent="1" edge="1">
          <mxGeometry width="50" height="50" relative="1" as="geometry">
            <mxPoint x="-20" y="513" as="sourcePoint" />
            <mxPoint x="40" y="513" as="targetPoint" />
          </mxGeometry>
        </mxCell>
        <mxCell id="nig3Wq-WDGFd4Grmrsc5-108" value="BTND" style="text;html=1;align=left;verticalAlign=middle;whiteSpace=wrap;rounded=0;fontFamily=Courier New;fontSize=10;fillOpacity=100;spacing=2;spacingLeft=0;connectable=0;" parent="1" vertex="1">
          <mxGeometry x="-55" y="503" width="40" height="20" as="geometry" />
        </mxCell>
        <mxCell id="nig3Wq-WDGFd4Grmrsc5-109" value="" style="endArrow=none;html=1;rounded=0;endFill=0;endSize=5;startSize=5;" parent="1" edge="1">
          <mxGeometry width="50" height="50" relative="1" as="geometry">
            <mxPoint x="40" y="513" as="sourcePoint" />
            <mxPoint x="119" y="513" as="targetPoint" />
          </mxGeometry>
        </mxCell>
        <mxCell id="nig3Wq-WDGFd4Grmrsc5-111" value="" style="endArrow=none;html=1;rounded=0;startArrow=oval;startFill=1;endSize=4;startSize=4;" parent="1" edge="1">
          <mxGeometry width="50" height="50" relative="1" as="geometry">
            <mxPoint x="75" y="490" as="sourcePoint" />
            <mxPoint x="75" y="560" as="targetPoint" />
          </mxGeometry>
        </mxCell>
        <mxCell id="nig3Wq-WDGFd4Grmrsc5-112" value="" style="endArrow=none;html=1;rounded=0;startArrow=oval;startFill=1;endSize=4;startSize=4;" parent="1" edge="1">
          <mxGeometry width="50" height="50" relative="1" as="geometry">
            <mxPoint x="60" y="513" as="sourcePoint" />
            <mxPoint x="60" y="600" as="targetPoint" />
          </mxGeometry>
        </mxCell>
        <mxCell id="nig3Wq-WDGFd4Grmrsc5-113" value="" style="verticalLabelPosition=bottom;shadow=0;dashed=0;align=center;html=1;verticalAlign=top;shape=mxgraph.electrical.opto_electronics.7_segment_display_with_dp;pointerEvents=1;fillColor=#FF0000;strokeColor=none;aspect=fixed;" parent="1" vertex="1">
          <mxGeometry x="640" y="410" width="65.82" height="80" as="geometry" />
        </mxCell>
        <mxCell id="nig3Wq-WDGFd4Grmrsc5-114" value="" style="verticalLabelPosition=bottom;shadow=0;dashed=0;align=center;html=1;verticalAlign=top;shape=mxgraph.electrical.logic_gates.inverter_2;aspect=fixed;" parent="1" vertex="1">
          <mxGeometry x="230" y="585" width="50" height="30" as="geometry" />
        </mxCell>
        <mxCell id="nig3Wq-WDGFd4Grmrsc5-115" value="" style="endArrow=block;html=1;rounded=0;endFill=1;orthogonal=1;endSize=5;startSize=5;" parent="1" edge="1">
          <mxGeometry width="50" height="50" relative="1" as="geometry">
            <mxPoint x="75" y="560" as="sourcePoint" />
            <mxPoint x="480" y="560" as="targetPoint" />
          </mxGeometry>
        </mxCell>
        <mxCell id="nig3Wq-WDGFd4Grmrsc5-116" value="LED_L(3:0)" style="text;html=1;align=left;verticalAlign=middle;whiteSpace=wrap;rounded=0;fontFamily=Courier New;fontSize=10;fillOpacity=100;spacing=2;spacingLeft=5;connectable=0;" parent="1" vertex="1">
          <mxGeometry x="480" y="550" width="70" height="20" as="geometry" />
        </mxCell>
        <mxCell id="nig3Wq-WDGFd4Grmrsc5-117" value="" style="endArrow=block;html=1;rounded=0;endFill=1;orthogonal=1;endSize=5;startSize=5;" parent="1" edge="1">
          <mxGeometry width="50" height="50" relative="1" as="geometry">
            <mxPoint x="280" y="600" as="sourcePoint" />
            <mxPoint x="480" y="600" as="targetPoint" />
          </mxGeometry>
        </mxCell>
        <mxCell id="nig3Wq-WDGFd4Grmrsc5-118" value="AN(1)" style="text;html=1;align=left;verticalAlign=middle;whiteSpace=wrap;rounded=0;fontFamily=Courier New;fontSize=10;fillOpacity=100;spacing=2;spacingLeft=5;connectable=0;" parent="1" vertex="1">
          <mxGeometry x="479" y="590" width="60.64" height="20" as="geometry" />
        </mxCell>
        <mxCell id="nig3Wq-WDGFd4Grmrsc5-119" value="" style="endArrow=none;html=1;rounded=0;endFill=0;endSize=5;startSize=5;" parent="1" edge="1">
          <mxGeometry width="50" height="50" relative="1" as="geometry">
            <mxPoint x="60" y="600" as="sourcePoint" />
            <mxPoint x="230" y="600" as="targetPoint" />
          </mxGeometry>
        </mxCell>
        <mxCell id="nig3Wq-WDGFd4Grmrsc5-120" value="" style="endArrow=block;html=1;rounded=0;endFill=1;orthogonal=1;endSize=5;startSize=5;" parent="1" edge="1">
          <mxGeometry width="50" height="50" relative="1" as="geometry">
            <mxPoint x="200" y="620" as="sourcePoint" />
            <mxPoint x="480" y="620" as="targetPoint" />
          </mxGeometry>
        </mxCell>
        <mxCell id="nig3Wq-WDGFd4Grmrsc5-121" value="AN(0)" style="text;html=1;align=left;verticalAlign=middle;whiteSpace=wrap;rounded=0;fontFamily=Courier New;fontSize=10;fillOpacity=100;spacing=2;spacingLeft=5;connectable=0;" parent="1" vertex="1">
          <mxGeometry x="480" y="610" width="60.64" height="20" as="geometry" />
        </mxCell>
        <mxCell id="nig3Wq-WDGFd4Grmrsc5-122" value="" style="endArrow=none;html=1;rounded=0;startArrow=oval;startFill=1;endSize=4;startSize=4;" parent="1" edge="1">
          <mxGeometry width="50" height="50" relative="1" as="geometry">
            <mxPoint x="200" y="600" as="sourcePoint" />
            <mxPoint x="200" y="620" as="targetPoint" />
          </mxGeometry>
        </mxCell>
        <mxCell id="4zQnGD1nhI3BBjdLwseV-1" value="" style="verticalLabelPosition=bottom;shadow=0;dashed=0;align=center;html=1;verticalAlign=top;shape=mxgraph.electrical.logic_gates.logic_gate;operation=xor;aspect=fixed;connectable=0;" parent="1" vertex="1">
          <mxGeometry x="40" y="720" width="50" height="30" as="geometry" />
        </mxCell>
        <mxCell id="4zQnGD1nhI3BBjdLwseV-2" value="" style="verticalLabelPosition=bottom;shadow=0;dashed=0;align=center;html=1;verticalAlign=top;shape=mxgraph.electrical.logic_gates.logic_gate;operation=and;aspect=fixed;connectable=0;" parent="1" vertex="1">
          <mxGeometry x="150" y="775" width="50" height="30" as="geometry" />
        </mxCell>
        <mxCell id="4zQnGD1nhI3BBjdLwseV-3" value="" style="verticalLabelPosition=bottom;shadow=0;dashed=0;align=center;html=1;verticalAlign=top;shape=mxgraph.electrical.logic_gates.logic_gate;operation=or;aspect=fixed;connectable=0;" parent="1" vertex="1">
          <mxGeometry x="210" y="795" width="50" height="30" as="geometry" />
        </mxCell>
        <mxCell id="4zQnGD1nhI3BBjdLwseV-5" value="" style="verticalLabelPosition=bottom;shadow=0;dashed=0;align=center;html=1;verticalAlign=top;shape=mxgraph.electrical.logic_gates.logic_gate;operation=xor;aspect=fixed;connectable=0;" parent="1" vertex="1">
          <mxGeometry x="110" y="740" width="50" height="30" as="geometry" />
        </mxCell>
        <mxCell id="4zQnGD1nhI3BBjdLwseV-6" value="" style="endArrow=none;html=1;rounded=0;endFill=0;endSize=5;startSize=5;" parent="1" edge="1">
          <mxGeometry width="50" height="50" relative="1" as="geometry">
            <mxPoint x="-10" y="727.5" as="sourcePoint" />
            <mxPoint x="40" y="727.5" as="targetPoint" />
          </mxGeometry>
        </mxCell>
        <mxCell id="4zQnGD1nhI3BBjdLwseV-7" value="" style="endArrow=none;html=1;rounded=0;endFill=0;endSize=5;startSize=5;" parent="1" edge="1">
          <mxGeometry width="50" height="50" relative="1" as="geometry">
            <mxPoint x="-10" y="742.5" as="sourcePoint" />
            <mxPoint x="40" y="742.5" as="targetPoint" />
          </mxGeometry>
        </mxCell>
        <mxCell id="4zQnGD1nhI3BBjdLwseV-8" value="" style="endArrow=none;html=1;rounded=0;endFill=0;endSize=5;startSize=5;" parent="1" edge="1">
          <mxGeometry width="50" height="50" relative="1" as="geometry">
            <mxPoint x="5" y="762.5" as="sourcePoint" />
            <mxPoint x="110" y="762.5" as="targetPoint" />
          </mxGeometry>
        </mxCell>
        <mxCell id="4zQnGD1nhI3BBjdLwseV-9" value="" style="endArrow=none;html=1;rounded=0;endFill=0;endSize=5;startSize=5;" parent="1" edge="1">
          <mxGeometry width="50" height="50" relative="1" as="geometry">
            <mxPoint x="105" y="735" as="sourcePoint" />
            <mxPoint x="105" y="747.5" as="targetPoint" />
          </mxGeometry>
        </mxCell>
        <mxCell id="4zQnGD1nhI3BBjdLwseV-10" value="" style="endArrow=none;html=1;rounded=0;endFill=0;endSize=5;startSize=5;" parent="1" edge="1">
          <mxGeometry width="50" height="50" relative="1" as="geometry">
            <mxPoint x="90" y="735" as="sourcePoint" />
            <mxPoint x="105" y="735" as="targetPoint" />
          </mxGeometry>
        </mxCell>
        <mxCell id="4zQnGD1nhI3BBjdLwseV-11" value="a" style="text;html=1;align=left;verticalAlign=middle;whiteSpace=wrap;rounded=0;fontFamily=Courier New;fontSize=10;fillOpacity=100;spacing=2;spacingLeft=0;connectable=0;" parent="1" vertex="1">
          <mxGeometry x="-25" y="717.5" width="30" height="20" as="geometry" />
        </mxCell>
        <mxCell id="4zQnGD1nhI3BBjdLwseV-12" value="b" style="text;html=1;align=left;verticalAlign=middle;whiteSpace=wrap;rounded=0;fontFamily=Courier New;fontSize=10;fillOpacity=100;spacing=2;spacingLeft=0;connectable=0;" parent="1" vertex="1">
          <mxGeometry x="-25" y="732.5" width="30" height="20" as="geometry" />
        </mxCell>
        <mxCell id="4zQnGD1nhI3BBjdLwseV-13" value="c_in" style="text;html=1;align=left;verticalAlign=middle;whiteSpace=wrap;rounded=0;fontFamily=Courier New;fontSize=10;fillOpacity=100;spacing=2;spacingLeft=0;connectable=0;" parent="1" vertex="1">
          <mxGeometry x="-25" y="752.5" width="30" height="20" as="geometry" />
        </mxCell>
        <mxCell id="3X3M70Q2T5t_4ZY13hNR-1" value="" style="endArrow=none;html=1;rounded=0;startArrow=oval;startFill=1;endSize=4;startSize=4;" edge="1" parent="1">
          <mxGeometry width="50" height="50" relative="1" as="geometry">
            <mxPoint x="105" y="762.5" as="sourcePoint" />
            <mxPoint x="105" y="782.5" as="targetPoint" />
          </mxGeometry>
        </mxCell>
        <mxCell id="3X3M70Q2T5t_4ZY13hNR-2" value="" style="endArrow=none;html=1;rounded=0;startArrow=oval;startFill=1;endSize=4;startSize=4;" edge="1" parent="1">
          <mxGeometry width="50" height="50" relative="1" as="geometry">
            <mxPoint x="90" y="735" as="sourcePoint" />
            <mxPoint x="90" y="797.5" as="targetPoint" />
          </mxGeometry>
        </mxCell>
        <mxCell id="3X3M70Q2T5t_4ZY13hNR-3" value="" style="endArrow=none;html=1;rounded=0;startArrow=oval;startFill=1;endSize=4;startSize=4;" edge="1" parent="1">
          <mxGeometry width="50" height="50" relative="1" as="geometry">
            <mxPoint x="35" y="742.5" as="sourcePoint" />
            <mxPoint x="35" y="822.5" as="targetPoint" />
          </mxGeometry>
        </mxCell>
        <mxCell id="3X3M70Q2T5t_4ZY13hNR-4" value="" style="endArrow=none;html=1;rounded=0;startArrow=oval;startFill=1;endSize=4;startSize=4;" edge="1" parent="1">
          <mxGeometry width="50" height="50" relative="1" as="geometry">
            <mxPoint x="20" y="727.5" as="sourcePoint" />
            <mxPoint x="20" y="837.5" as="targetPoint" />
          </mxGeometry>
        </mxCell>
        <mxCell id="3X3M70Q2T5t_4ZY13hNR-5" value="" style="endArrow=none;html=1;rounded=0;endFill=0;endSize=5;startSize=5;" edge="1" parent="1">
          <mxGeometry width="50" height="50" relative="1" as="geometry">
            <mxPoint x="105" y="782.5" as="sourcePoint" />
            <mxPoint x="150" y="782.5" as="targetPoint" />
          </mxGeometry>
        </mxCell>
        <mxCell id="3X3M70Q2T5t_4ZY13hNR-6" value="" style="endArrow=none;html=1;rounded=0;endFill=0;endSize=5;startSize=5;" edge="1" parent="1">
          <mxGeometry width="50" height="50" relative="1" as="geometry">
            <mxPoint x="90" y="797.5" as="sourcePoint" />
            <mxPoint x="150" y="797.5" as="targetPoint" />
          </mxGeometry>
        </mxCell>
        <mxCell id="3X3M70Q2T5t_4ZY13hNR-8" value="" style="endArrow=none;html=1;rounded=0;endFill=0;endSize=5;startSize=5;" edge="1" parent="1">
          <mxGeometry width="50" height="50" relative="1" as="geometry">
            <mxPoint x="105" y="747.5" as="sourcePoint" />
            <mxPoint x="110" y="747.5" as="targetPoint" />
          </mxGeometry>
        </mxCell>
        <mxCell id="3X3M70Q2T5t_4ZY13hNR-9" value="" style="verticalLabelPosition=bottom;shadow=0;dashed=0;align=center;html=1;verticalAlign=top;shape=mxgraph.electrical.logic_gates.logic_gate;operation=and;aspect=fixed;connectable=0;" vertex="1" parent="1">
          <mxGeometry x="150" y="815" width="50" height="30" as="geometry" />
        </mxCell>
        <mxCell id="3X3M70Q2T5t_4ZY13hNR-10" value="" style="endArrow=none;html=1;rounded=0;endFill=0;endSize=5;startSize=5;" edge="1" parent="1">
          <mxGeometry width="50" height="50" relative="1" as="geometry">
            <mxPoint x="35" y="822.5" as="sourcePoint" />
            <mxPoint x="150" y="822.5" as="targetPoint" />
          </mxGeometry>
        </mxCell>
        <mxCell id="3X3M70Q2T5t_4ZY13hNR-11" value="" style="endArrow=none;html=1;rounded=0;endFill=0;endSize=5;startSize=5;" edge="1" parent="1">
          <mxGeometry width="50" height="50" relative="1" as="geometry">
            <mxPoint x="20" y="837.5" as="sourcePoint" />
            <mxPoint x="150" y="837.5" as="targetPoint" />
          </mxGeometry>
        </mxCell>
        <mxCell id="3X3M70Q2T5t_4ZY13hNR-12" value="" style="endArrow=none;html=1;rounded=0;endFill=0;endSize=5;startSize=5;" edge="1" parent="1">
          <mxGeometry width="50" height="50" relative="1" as="geometry">
            <mxPoint x="200" y="790" as="sourcePoint" />
            <mxPoint x="205" y="790" as="targetPoint" />
          </mxGeometry>
        </mxCell>
        <mxCell id="3X3M70Q2T5t_4ZY13hNR-13" value="" style="endArrow=none;html=1;rounded=0;endFill=0;endSize=5;startSize=5;" edge="1" parent="1">
          <mxGeometry width="50" height="50" relative="1" as="geometry">
            <mxPoint x="205" y="802.5" as="sourcePoint" />
            <mxPoint x="210" y="802.5" as="targetPoint" />
          </mxGeometry>
        </mxCell>
        <mxCell id="3X3M70Q2T5t_4ZY13hNR-14" value="" style="endArrow=none;html=1;rounded=0;endFill=0;endSize=5;startSize=5;" edge="1" parent="1">
          <mxGeometry width="50" height="50" relative="1" as="geometry">
            <mxPoint x="205" y="790" as="sourcePoint" />
            <mxPoint x="205" y="803" as="targetPoint" />
          </mxGeometry>
        </mxCell>
        <mxCell id="3X3M70Q2T5t_4ZY13hNR-15" value="" style="endArrow=none;html=1;rounded=0;endFill=0;endSize=5;startSize=5;" edge="1" parent="1">
          <mxGeometry width="50" height="50" relative="1" as="geometry">
            <mxPoint x="200" y="830" as="sourcePoint" />
            <mxPoint x="205" y="830" as="targetPoint" />
          </mxGeometry>
        </mxCell>
        <mxCell id="3X3M70Q2T5t_4ZY13hNR-16" value="" style="endArrow=none;html=1;rounded=0;endFill=0;endSize=5;startSize=5;" edge="1" parent="1">
          <mxGeometry width="50" height="50" relative="1" as="geometry">
            <mxPoint x="205" y="817.5" as="sourcePoint" />
            <mxPoint x="205" y="830" as="targetPoint" />
          </mxGeometry>
        </mxCell>
        <mxCell id="3X3M70Q2T5t_4ZY13hNR-17" value="" style="endArrow=none;html=1;rounded=0;endFill=0;endSize=5;startSize=5;" edge="1" parent="1">
          <mxGeometry width="50" height="50" relative="1" as="geometry">
            <mxPoint x="205" y="817.5" as="sourcePoint" />
            <mxPoint x="210" y="817.5" as="targetPoint" />
          </mxGeometry>
        </mxCell>
        <mxCell id="3X3M70Q2T5t_4ZY13hNR-18" value="" style="endArrow=block;html=1;rounded=0;endFill=1;endSize=5;startSize=5;" edge="1" parent="1">
          <mxGeometry width="50" height="50" relative="1" as="geometry">
            <mxPoint x="155" y="755" as="sourcePoint" />
            <mxPoint x="300" y="755" as="targetPoint" />
          </mxGeometry>
        </mxCell>
        <mxCell id="3X3M70Q2T5t_4ZY13hNR-20" value="" style="endArrow=block;html=1;rounded=0;endFill=1;orthogonal=1;endSize=5;startSize=5;" edge="1" parent="1">
          <mxGeometry width="50" height="50" relative="1" as="geometry">
            <mxPoint x="260" y="810" as="sourcePoint" />
            <mxPoint x="300" y="810" as="targetPoint" />
          </mxGeometry>
        </mxCell>
        <mxCell id="3X3M70Q2T5t_4ZY13hNR-21" value="c_out" style="text;html=1;align=left;verticalAlign=middle;whiteSpace=wrap;rounded=0;fontFamily=Courier New;fontSize=10;fillOpacity=100;spacing=2;spacingLeft=5;connectable=0;" vertex="1" parent="1">
          <mxGeometry x="300" y="800" width="60.64" height="20" as="geometry" />
        </mxCell>
        <mxCell id="3X3M70Q2T5t_4ZY13hNR-22" value="sum" style="text;html=1;align=left;verticalAlign=middle;whiteSpace=wrap;rounded=0;fontFamily=Courier New;fontSize=10;fillOpacity=100;spacing=2;spacingLeft=5;connectable=0;" vertex="1" parent="1">
          <mxGeometry x="300" y="745" width="60.64" height="20" as="geometry" />
        </mxCell>
        <mxCell id="3X3M70Q2T5t_4ZY13hNR-23" value="half_adder.vhd" style="rounded=1;arcSize=10;align=left;verticalAlign=top;fontFamily=Courier New;absoluteArcSize=0;fillColor=none;points=[[0,0,0,0,0],[0,0.25,0,0,0],[0,0.5,0,0,0],[0,0.75,0,0,0],[0,1,0,0,0],[0.25,0,0,0,0],[0.25,1,0,0,0],[0.5,0,0,0,0],[0.5,1,0,0,0],[0.75,0,0,0,0],[0.75,1,0,0,0],[1,0,0,0,0],[1,0.25,0,0,0],[1,0.5,0,0,0],[1,0.75,0,0,0],[1,1,0,0,0]];connectable=0;snapToPoint=0;fixDash=0;metaEdit=0;autosize=0;fontSize=10;spacingLeft=5;labelBorderColor=none;spacingTop=0;spacing=2;labelBackgroundColor=none;whiteSpace=wrap;html=1;strokeWidth=1;shadow=0;glass=0;" vertex="1" parent="1">
          <mxGeometry x="160" y="880" width="100" height="80" as="geometry" />
        </mxCell>
        <mxCell id="3X3M70Q2T5t_4ZY13hNR-24" value="b" style="text;html=1;align=left;verticalAlign=middle;whiteSpace=wrap;rounded=0;fontFamily=Courier New;fontSize=10;fillOpacity=100;spacingLeft=5;" vertex="1" parent="1">
          <mxGeometry x="159.36" y="930" width="60" height="20" as="geometry" />
        </mxCell>
        <mxCell id="3X3M70Q2T5t_4ZY13hNR-25" value="a" style="text;html=1;align=left;verticalAlign=middle;whiteSpace=wrap;rounded=0;fontFamily=Courier New;fontSize=10;fillOpacity=100;spacing=2;spacingLeft=5;" vertex="1" parent="1">
          <mxGeometry x="159.36" y="910" width="60" height="20" as="geometry" />
        </mxCell>
        <mxCell id="3X3M70Q2T5t_4ZY13hNR-26" value="" style="endArrow=block;html=1;rounded=0;endFill=1;endSize=5;startSize=5;" edge="1" parent="1">
          <mxGeometry width="50" height="50" relative="1" as="geometry">
            <mxPoint x="-30" y="920" as="sourcePoint" />
            <mxPoint x="160" y="920" as="targetPoint" />
          </mxGeometry>
        </mxCell>
        <mxCell id="3X3M70Q2T5t_4ZY13hNR-27" value="" style="endArrow=block;html=1;rounded=0;endFill=1;endSize=5;startSize=5;" edge="1" parent="1">
          <mxGeometry width="50" height="50" relative="1" as="geometry">
            <mxPoint x="140" y="940" as="sourcePoint" />
            <mxPoint x="160" y="940" as="targetPoint" />
          </mxGeometry>
        </mxCell>
        <mxCell id="3X3M70Q2T5t_4ZY13hNR-28" value="sum" style="text;html=1;align=right;verticalAlign=middle;whiteSpace=wrap;rounded=0;fontFamily=Courier New;fontSize=10;fillOpacity=100;spacing=2;spacingRight=5;" vertex="1" parent="1">
          <mxGeometry x="200" y="910" width="60" height="20" as="geometry" />
        </mxCell>
        <mxCell id="3X3M70Q2T5t_4ZY13hNR-29" value="" style="endArrow=block;html=1;rounded=0;exitX=1;exitY=0.5;exitDx=0;exitDy=0;endFill=1;endSize=5;startSize=5;" edge="1" parent="1" source="3X3M70Q2T5t_4ZY13hNR-28">
          <mxGeometry width="50" height="50" relative="1" as="geometry">
            <mxPoint x="339.36" y="1060" as="sourcePoint" />
            <mxPoint x="375" y="920" as="targetPoint" />
          </mxGeometry>
        </mxCell>
        <mxCell id="3X3M70Q2T5t_4ZY13hNR-30" value="carry" style="text;html=1;align=right;verticalAlign=middle;whiteSpace=wrap;rounded=0;fontFamily=Courier New;fontSize=10;fillOpacity=100;spacing=2;spacingRight=5;" vertex="1" parent="1">
          <mxGeometry x="200" y="930" width="60" height="20" as="geometry" />
        </mxCell>
        <mxCell id="3X3M70Q2T5t_4ZY13hNR-31" value="" style="endArrow=none;html=1;rounded=0;exitX=1;exitY=0.5;exitDx=0;exitDy=0;endFill=0;endSize=5;startSize=5;" edge="1" parent="1" source="3X3M70Q2T5t_4ZY13hNR-30">
          <mxGeometry width="50" height="50" relative="1" as="geometry">
            <mxPoint x="340" y="1080" as="sourcePoint" />
            <mxPoint x="280" y="940" as="targetPoint" />
          </mxGeometry>
        </mxCell>
        <mxCell id="3X3M70Q2T5t_4ZY13hNR-32" value="half_adder.vhd" style="rounded=1;arcSize=10;align=left;verticalAlign=top;fontFamily=Courier New;absoluteArcSize=0;fillColor=none;points=[[0,0,0,0,0],[0,0.25,0,0,0],[0,0.5,0,0,0],[0,0.75,0,0,0],[0,1,0,0,0],[0.25,0,0,0,0],[0.25,1,0,0,0],[0.5,0,0,0,0],[0.5,1,0,0,0],[0.75,0,0,0,0],[0.75,1,0,0,0],[1,0,0,0,0],[1,0.25,0,0,0],[1,0.5,0,0,0],[1,0.75,0,0,0],[1,1,0,0,0]];connectable=0;snapToPoint=0;fixDash=0;metaEdit=0;autosize=0;fontSize=10;spacingLeft=5;labelBorderColor=none;spacingTop=0;spacing=2;labelBackgroundColor=none;whiteSpace=wrap;html=1;strokeWidth=1;shadow=0;glass=0;" vertex="1" parent="1">
          <mxGeometry x="20" y="960" width="100" height="80" as="geometry" />
        </mxCell>
        <mxCell id="3X3M70Q2T5t_4ZY13hNR-33" value="b" style="text;html=1;align=left;verticalAlign=middle;whiteSpace=wrap;rounded=0;fontFamily=Courier New;fontSize=10;fillOpacity=100;spacingLeft=5;" vertex="1" parent="1">
          <mxGeometry x="19.360000000000014" y="1010" width="60" height="20" as="geometry" />
        </mxCell>
        <mxCell id="3X3M70Q2T5t_4ZY13hNR-34" value="a" style="text;html=1;align=left;verticalAlign=middle;whiteSpace=wrap;rounded=0;fontFamily=Courier New;fontSize=10;fillOpacity=100;spacing=2;spacingLeft=5;" vertex="1" parent="1">
          <mxGeometry x="19.360000000000014" y="990" width="60" height="20" as="geometry" />
        </mxCell>
        <mxCell id="3X3M70Q2T5t_4ZY13hNR-35" value="sum" style="text;html=1;align=right;verticalAlign=middle;whiteSpace=wrap;rounded=0;fontFamily=Courier New;fontSize=10;fillOpacity=100;spacing=2;spacingRight=5;" vertex="1" parent="1">
          <mxGeometry x="60" y="990" width="60" height="20" as="geometry" />
        </mxCell>
        <mxCell id="3X3M70Q2T5t_4ZY13hNR-36" value="carry" style="text;html=1;align=right;verticalAlign=middle;whiteSpace=wrap;rounded=0;fontFamily=Courier New;fontSize=10;fillOpacity=100;spacing=2;spacingRight=5;" vertex="1" parent="1">
          <mxGeometry x="60" y="1010" width="60" height="20" as="geometry" />
        </mxCell>
        <mxCell id="3X3M70Q2T5t_4ZY13hNR-37" value="" style="endArrow=block;html=1;rounded=0;endFill=1;endSize=5;startSize=5;" edge="1" parent="1">
          <mxGeometry width="50" height="50" relative="1" as="geometry">
            <mxPoint x="-30" y="1000" as="sourcePoint" />
            <mxPoint x="20" y="1000" as="targetPoint" />
          </mxGeometry>
        </mxCell>
        <mxCell id="3X3M70Q2T5t_4ZY13hNR-38" value="" style="endArrow=block;html=1;rounded=0;endFill=1;endSize=5;startSize=5;" edge="1" parent="1">
          <mxGeometry width="50" height="50" relative="1" as="geometry">
            <mxPoint x="-30" y="1020" as="sourcePoint" />
            <mxPoint x="20" y="1020" as="targetPoint" />
          </mxGeometry>
        </mxCell>
        <mxCell id="3X3M70Q2T5t_4ZY13hNR-39" value="" style="endArrow=none;html=1;rounded=0;exitX=1;exitY=0.5;exitDx=0;exitDy=0;endFill=0;endSize=5;startSize=5;" edge="1" parent="1">
          <mxGeometry width="50" height="50" relative="1" as="geometry">
            <mxPoint x="120" y="1000" as="sourcePoint" />
            <mxPoint x="140" y="1000" as="targetPoint" />
          </mxGeometry>
        </mxCell>
        <mxCell id="3X3M70Q2T5t_4ZY13hNR-40" value="" style="endArrow=none;html=1;rounded=0;exitX=1;exitY=0.5;exitDx=0;exitDy=0;endFill=0;endSize=5;startSize=5;" edge="1" parent="1">
          <mxGeometry width="50" height="50" relative="1" as="geometry">
            <mxPoint x="120" y="1020" as="sourcePoint" />
            <mxPoint x="280" y="1020" as="targetPoint" />
          </mxGeometry>
        </mxCell>
        <mxCell id="3X3M70Q2T5t_4ZY13hNR-41" value="" style="endArrow=none;html=1;rounded=0;startArrow=none;startFill=0;endSize=4;startSize=4;" edge="1" parent="1">
          <mxGeometry width="50" height="50" relative="1" as="geometry">
            <mxPoint x="140" y="940" as="sourcePoint" />
            <mxPoint x="140" y="1000" as="targetPoint" />
          </mxGeometry>
        </mxCell>
        <mxCell id="3X3M70Q2T5t_4ZY13hNR-42" value="" style="verticalLabelPosition=bottom;shadow=0;dashed=0;align=center;html=1;verticalAlign=top;shape=mxgraph.electrical.logic_gates.logic_gate;operation=or;aspect=fixed;connectable=0;" vertex="1" parent="1">
          <mxGeometry x="284.72" y="965" width="50" height="30" as="geometry" />
        </mxCell>
        <mxCell id="3X3M70Q2T5t_4ZY13hNR-44" value="" style="endArrow=none;html=1;rounded=0;endFill=0;endSize=5;startSize=5;" edge="1" parent="1">
          <mxGeometry width="50" height="50" relative="1" as="geometry">
            <mxPoint x="279.72" y="972.5" as="sourcePoint" />
            <mxPoint x="284.72" y="972.5" as="targetPoint" />
          </mxGeometry>
        </mxCell>
        <mxCell id="3X3M70Q2T5t_4ZY13hNR-45" value="" style="endArrow=none;html=1;rounded=0;endFill=0;endSize=5;startSize=5;" edge="1" parent="1">
          <mxGeometry width="50" height="50" relative="1" as="geometry">
            <mxPoint x="280" y="940" as="sourcePoint" />
            <mxPoint x="280" y="973" as="targetPoint" />
          </mxGeometry>
        </mxCell>
        <mxCell id="3X3M70Q2T5t_4ZY13hNR-47" value="" style="endArrow=none;html=1;rounded=0;endFill=0;endSize=5;startSize=5;" edge="1" parent="1">
          <mxGeometry width="50" height="50" relative="1" as="geometry">
            <mxPoint x="280" y="987.5" as="sourcePoint" />
            <mxPoint x="280" y="1020" as="targetPoint" />
          </mxGeometry>
        </mxCell>
        <mxCell id="3X3M70Q2T5t_4ZY13hNR-48" value="" style="endArrow=none;html=1;rounded=0;endFill=0;endSize=5;startSize=5;" edge="1" parent="1">
          <mxGeometry width="50" height="50" relative="1" as="geometry">
            <mxPoint x="279.72" y="987.5" as="sourcePoint" />
            <mxPoint x="284.72" y="987.5" as="targetPoint" />
          </mxGeometry>
        </mxCell>
        <mxCell id="3X3M70Q2T5t_4ZY13hNR-49" value="" style="endArrow=block;html=1;rounded=0;endFill=1;orthogonal=1;endSize=5;startSize=5;" edge="1" parent="1">
          <mxGeometry width="50" height="50" relative="1" as="geometry">
            <mxPoint x="335" y="980" as="sourcePoint" />
            <mxPoint x="375" y="980" as="targetPoint" />
          </mxGeometry>
        </mxCell>
        <mxCell id="3X3M70Q2T5t_4ZY13hNR-50" value="c_out" style="text;html=1;align=left;verticalAlign=middle;whiteSpace=wrap;rounded=0;fontFamily=Courier New;fontSize=10;fillOpacity=100;spacing=2;spacingLeft=5;connectable=0;" vertex="1" parent="1">
          <mxGeometry x="374.72" y="970" width="60.64" height="20" as="geometry" />
        </mxCell>
        <mxCell id="3X3M70Q2T5t_4ZY13hNR-51" value="sum" style="text;html=1;align=left;verticalAlign=middle;whiteSpace=wrap;rounded=0;fontFamily=Courier New;fontSize=10;fillOpacity=100;spacing=2;spacingLeft=5;connectable=0;" vertex="1" parent="1">
          <mxGeometry x="374.72" y="910" width="60.64" height="20" as="geometry" />
        </mxCell>
        <mxCell id="3X3M70Q2T5t_4ZY13hNR-52" value="c_in" style="text;html=1;align=right;verticalAlign=middle;whiteSpace=wrap;rounded=0;fontFamily=Courier New;fontSize=10;fillOpacity=100;spacing=2;spacingLeft=0;connectable=0;" vertex="1" parent="1">
          <mxGeometry x="-80" y="910" width="40" height="20" as="geometry" />
        </mxCell>
        <mxCell id="3X3M70Q2T5t_4ZY13hNR-53" value="a" style="text;html=1;align=right;verticalAlign=middle;whiteSpace=wrap;rounded=0;fontFamily=Courier New;fontSize=10;fillOpacity=100;spacing=2;spacingLeft=0;connectable=0;" vertex="1" parent="1">
          <mxGeometry x="-80" y="990" width="40" height="20" as="geometry" />
        </mxCell>
        <mxCell id="3X3M70Q2T5t_4ZY13hNR-54" value="b" style="text;html=1;align=right;verticalAlign=middle;whiteSpace=wrap;rounded=0;fontFamily=Courier New;fontSize=10;fillOpacity=100;spacing=2;spacingLeft=0;connectable=0;" vertex="1" parent="1">
          <mxGeometry x="-80" y="1010" width="40" height="20" as="geometry" />
        </mxCell>
        <mxCell id="3X3M70Q2T5t_4ZY13hNR-55" value="sig_c0" style="text;html=1;align=center;verticalAlign=middle;whiteSpace=wrap;rounded=0;fontFamily=Courier New;fontSize=10;fillOpacity=100;spacing=2;spacingLeft=0;connectable=0;" vertex="1" parent="1">
          <mxGeometry x="159.36" y="1020" width="50.64" height="20" as="geometry" />
        </mxCell>
        <mxCell id="3X3M70Q2T5t_4ZY13hNR-56" value="sig_sum0" style="text;html=1;align=center;verticalAlign=middle;whiteSpace=wrap;rounded=0;fontFamily=Courier New;fontSize=10;fillOpacity=100;spacing=2;spacingLeft=0;connectable=0;" vertex="1" parent="1">
          <mxGeometry x="148.72000000000003" y="980" width="50.64" height="20" as="geometry" />
        </mxCell>
        <mxCell id="3X3M70Q2T5t_4ZY13hNR-57" value="sig_c1" style="text;html=1;align=center;verticalAlign=middle;whiteSpace=wrap;rounded=0;fontFamily=Courier New;fontSize=10;fillOpacity=100;spacing=2;spacingLeft=0;connectable=0;" vertex="1" parent="1">
          <mxGeometry x="284.72" y="930" width="50.64" height="20" as="geometry" />
        </mxCell>
        <mxCell id="3X3M70Q2T5t_4ZY13hNR-58" value="full_adder.vhd" style="rounded=1;arcSize=3;whiteSpace=wrap;html=1;align=left;verticalAlign=top;fontFamily=Courier New;absoluteArcSize=0;fillColor=none;fontSize=10;spacingLeft=5;connectable=0;imageHeight=24;" vertex="1" parent="1">
          <mxGeometry x="0.64" y="860" width="339.36" height="200" as="geometry" />
        </mxCell>
      </root>
    </mxGraphModel>
  </diagram>
</mxfile>
